# xmcd CD database file
#
# Track frame offsets:
#	150
#	11468
#	20919
#	36024
#	48339
#	58829
#	71140
#	83373
#	96071
#	107546
#	118623
#	129665
#	139802
#	150560
#	172544
#
# Disc length: 2449 seconds
#
# Revision: 0
# Processed by: cddbd v1.5.2PL0 Copyright (c) Steve Scherf et al.
# Submitted via: CDex 1.51
#
DISCID=b9098f0f
DTITLE=The Beatles - Rubber Soul (Remastered)
DYEAR=2009
DGENRE=Salsa
TTITLE0=Drive My Car 
TTITLE1=Norwegian Wood (This Bird Has Flown) 
TTITLE2=You Won't See Me 
TTITLE3=Nowhere Man
TTITLE4=Think For Yourself 
TTITLE5=The Word
TTITLE6=Michelle
TTITLE7=What Goes On
TTITLE8=Girl
TTITLE9=I'm Looking Through You
TTITLE10=In My Life
TTITLE11=Wait
TTITLE12=If I Needed Someone
TTITLE13=Run For Your Life
TTITLE14=Rubber Soul Documentary (Extra)
EXTD=YEAR: 2009
EXTT0=
EXTT1=
EXTT2=
EXTT3=
EXTT4=
EXTT5=
EXTT6=
EXTT7=
EXTT8=
EXTT9=
EXTT10=
EXTT11=
EXTT12=
EXTT13=
EXTT14=
PLAYORDER=
